<svg xmlns="http://www.w3.org/2000/svg" viewBox="0 0 12 12">
  <g fill="none" fill-rule="evenodd" transform="translate(-2 -2)">
    <rect width="16" height="16" fill="#D0021B" fill-opacity=".1" fill-rule="nonzero" opacity="0"/>
    <path fill="#8B97AF" d="M3.8411666,3.00630939 L3.92426407,3.07573593 L8,7.151 L12.0757359,3.07573593 C12.3100505,2.84142136 12.6899495,2.84142136 12.9242641,3.07573593 C13.1325437,3.28401555 13.1556859,3.60732483 12.9936906,3.8411666 L12.9242641,3.92426407 L8.849,8 L12.9242641,12.0757359 C13.1585786,12.3100505 13.1585786,12.6899495 12.9242641,12.9242641 C12.7159844,13.1325437 12.3926752,13.1556859 12.1588334,12.9936906 L12.0757359,12.9242641 L8,8.849 L3.92426407,12.9242641 C3.68994949,13.1585786 3.31005051,13.1585786 3.07573593,12.9242641 C2.86745631,12.7159844 2.84431413,12.3926752 3.00630939,12.1588334 L3.07573593,12.0757359 L7.151,8 L3.07573593,3.92426407 C2.84142136,3.68994949 2.84142136,3.31005051 3.07573593,3.07573593 C3.2579806,2.89349126 3.52829485,2.85299245 3.74968156,2.95423948 L3.8411666,3.00630939 Z"/>
  </g>
</svg>
