<svg viewBox="0 0 16 16" xmlns="http://www.w3.org/2000/svg"><path d="m10.5 1c.2761424 0 .5.22385763.5.5v.5h2.2c.4418278 0 .8.3581722.8.8v10.4c0 .4418278-.3581722.8-.8.8h-11.4c-.4418278 0-.8-.3581722-.8-.8v-10.4c0-.4418278.3581722-.8.8-.8h2.2v-.5c0-.27614237.22385763-.5.5-.5s.5.22385763.5.5v.5h5v-.5c0-.27614237.2238576-.5.5-.5zm2.5 6h-11v6h11zm-9-4h-2v3h11v-3h-2v.5c0 .27614237-.2238576.5-.5.5s-.5-.22385763-.5-.5v-.5h-5v.5c0 .27614237-.22385763.5-.5.5s-.5-.22385763-.5-.5z" fill="#36425a" fill-rule="evenodd"/></svg>