<svg viewBox="0 0 16 16" xmlns="http://www.w3.org/2000/svg"><path d="m5.5 0c1.93299662 0 3.5 1.56700338 3.5 3.5 0 1.19070851-.59459144 2.24254274-1.50305665 2.87478503 1.98515089.77281519 3.41019035 2.66662496 3.49868945 4.90400787l.0043672.2212071v.8c0 .3865993-.3134007.7-.7.7h-9.6c-.38659932 0-.7-.3134007-.7-.7v-.8l.0043672-.2212071c.08849909-2.23738291 1.51353856-4.13119268 3.49876292-4.90507388-.90853868-.63117628-1.50313012-1.68301051-1.50313012-2.87371902 0-1.93299662 1.56700338-3.5 3.5-3.5zm0 7c-2.34663993 0-4.28414307 1.80020361-4.48261267 4.0891369l-.01321495.2093947-.00417238.2014684v.5h9l.0001948-.4802612-.00378063-.2014221c-.09522236-2.40735676-2.07866394-4.3183167-4.49641417-4.3183167zm0-6c-1.38071187 0-2.5 1.11928813-2.5 2.5s1.11928813 2.5 2.5 2.5 2.5-1.11928813 2.5-2.5-1.11928813-2.5-2.5-2.5z" fill="#36425a" fill-rule="evenodd" transform="translate(2 1)"/></svg>