<svg viewBox="0 0 16 16" xmlns="http://www.w3.org/2000/svg"><path d="m8.5 1c2.3160466 0 4.3491754 1.21131475 5.5004172 3.03497488l-.0004172-.53497488c0-.27614237.2238576-.5.5-.5s.5.22385763.5.5v3.5l-.0188938.00067087c.0125196.16480185.0188938.33132111.0188938.49932913 0 .18796255-.0079913.37501802-.0238859.56082055-.0235368.27513747-.2656602.47910008-.5407977.45556324s-.4791001-.26566021-.4555632-.54079768c.0134704-.15746456.0202468-.31608273.0202468-.47558611 0-3.03756612-2.4624339-5.5-5.5-5.5-3.03756612 0-5.5 2.46243388-5.5 5.5 0 3.0375661 2.46243388 5.5 5.5 5.5 1.17301971 0 2.2893575-.3675285 3.2193245-1.0400924.2237577-.1618244.5363337-.1116176.698158.1121401.1618244.2237576.1116176.5363336-.1121401.698158-1.0990901.7948759-2.42011919 1.2297943-3.8053424 1.2297943-3.58985087 0-6.5-2.9101491-6.5-6.5 0-3.58985087 2.91014913-6.5 6.5-6.5zm0 3c.27614237 0 .5.22385763.5.5v2.5h2.5c.2761424 0 .5.22385763.5.5s-.2238576.5-.5.5h-3.5v-3.5c0-.27614237.22385763-.5.5-.5z" fill="#b7bfd0" fill-rule="evenodd"/></svg>