<?xml version="1.0" encoding="UTF-8"?>
<svg width="16px" height="16px" viewBox="0 0 16 16" version="1.1" xmlns="http://www.w3.org/2000/svg" xmlns:xlink="http://www.w3.org/1999/xlink">
    <title>00图标/icon_svg/16x16/添加地点</title>
    <g id="00图标/icon_svg/16x16/添加地点" stroke="none" stroke-width="1" fill="none" fill-rule="evenodd">
        <g id="icon/16px/添加地点">
            <rect id="矩形" fill="#000000" opacity="0" x="0" y="0" width="16" height="16"></rect>
            <path d="M6.88099531,15.5144457 L6.32275722,15.0700892 L6.32275722,15.0700892 L6.2531902,15.0133238 C2.76415131,12.1455929 1,9.64013499 1,7.44226181 C1,3.88429886 3.91014913,1 7.5,1 C11.0898509,1 14,3.88429886 14,7.44226181 C14,9.57021473 12.3463081,11.9864935 9.0745587,14.7407312 L8.59826928,15.1337825 L8.59826928,15.1337825 L8.11902766,15.5144165 C7.75596174,15.8005773 7.24407472,15.8005894 6.88099531,15.5144457 Z M2,7.55845288 C2,9.34395385 3.48289552,11.3794492 6.48284875,13.9467366 L6.95863735,14.3472662 L6.95863735,14.3472662 L7.31042711,14.6357318 C7.42079312,14.7257511 7.57924127,14.7257595 7.68961688,14.635752 L8.19676859,14.2181092 L8.19676859,14.2181092 C11.4115475,11.5223547 13,9.40641015 13,7.55845288 C13,4.48860412 10.5375661,2 7.5,2 C4.46243388,2 2,4.48860412 2,7.55845288 Z M7.5,10 C6.11928813,10 5,8.88071187 5,7.5 C5,6.11928813 6.11928813,5 7.5,5 C8.88071187,5 10,6.11928813 10,7.5 C10,8.88071187 8.88071187,10 7.5,10 Z M7.5,9 C8.32842712,9 9,8.32842712 9,7.5 C9,6.67157288 8.32842712,6 7.5,6 C6.67157288,6 6,6.67157288 6,7.5 C6,8.32842712 6.67157288,9 7.5,9 Z" id="形状" fill="#36425A"></path>
        </g>
    </g>
</svg>