<svg viewBox="0 0 16 16" xmlns="http://www.w3.org/2000/svg"><path d="m4 12c.55228475 0 1 .4477153 1 1s-.44771525 1-1 1-1-.4477153-1-1 .44771525-1 1-1zm4 0c.55228475 0 1 .4477153 1 1s-.44771525 1-1 1-1-.4477153-1-1 .44771525-1 1-1zm4 0c.5522847 0 1 .4477153 1 1s-.4477153 1-1 1-1-.4477153-1-1 .4477153-1 1-1zm-8-10c.55228475 0 1 .44771525 1 1v7c0 .5522847-.44771525 1-1 1s-1-.4477153-1-1v-7c0-.55228475.44771525-1 1-1zm4 0c.55228475 0 1 .44771525 1 1v7c0 .5522847-.44771525 1-1 1s-1-.4477153-1-1v-7c0-.55228475.44771525-1 1-1zm4 0c.5522847 0 1 .44771525 1 1v7c0 .5522847-.4477153 1-1 1s-1-.4477153-1-1v-7c0-.55228475.4477153-1 1-1z" fill="#b7bfd0" fill-rule="evenodd"/></svg>