<svg viewBox="0 0 16 16" xmlns="http://www.w3.org/2000/svg"><path d="m10.2859747 13.8666645c.1252563.2461006.0272926.5471447-.2188079.672401-.59946154.3051043-1.29041782.4558208-2.06712124.4558208-.77670341 0-1.4676597-.1507165-2.06712123-.4558208-.24610054-.1252563-.34406417-.4263004-.21880789-.672401.12525628-.2461005.42630046-.3440642.672401-.2188079.45215257.2301293.9880794.3470297 1.61352812.3470297.62544873 0 1.16137556-.1169004 1.61352812-.3470297.24610054-.1252563.54714472-.0272926.67240102.2188079zm-2.28592914-12.87177825c.84848481 0 1.595344.50852116 1.92166309 1.25931385l.02105385.05568615.186172.08212208c1.6830159.78375613 2.781324 2.44751953 2.8663297 4.34049557l.0051166.22821569v2.17126857c0 .7207825.206752 1.42643934.5957279 2.03325484l.4372712.6821577c.2207492.3443762.1205297.8025009-.2238465 1.0232501-.1192892.0764658-.2580088.1171096-.3997018.1171096h-10.81873804c-.40905403 0-.74065784-.3316038-.74065784-.7406579 0-.141693.04064377-.2804126.11710954-.3997018l.43727113-.6821577c.38897595-.6068155.59572793-1.31247234.59572793-2.03325484v-2.17126857c0-1.98663279 1.12021212-3.75351808 2.87072739-4.56913491l.18449079-.08169843.02279207-.05605373c.30439994-.7004406.97535542-1.19007416 1.75325576-1.25224557zm0 1c-.50247906 0-.93717106.34155895-1.06022751.82033981-.04114357.160079-.15873703.28948241-.31416023.34571146-1.58640315.57392937-2.6251135 2.08475834-2.6251135 3.79978207v2.17126857c0 .91208954-.26162722 1.80503874-.75384351 2.57291274l-.18197201.2819854h9.8699014l-.1804059-.2819854c-.4429946-.6910866-.6992122-1.4834841-.7460257-2.29996602l-.0078178-.27294672v-2.17126857c0-1.7150301-1.0395446-3.22580748-2.62555181-3.79914573-.1554503-.05619495-.27308189-.1855856-.31425634-.34567099-.12329997-.47938783-.55798517-.82101662-1.06052709-.82101662z" fill="#36425a" fill-rule="evenodd"/></svg>