<svg viewBox="0 0 16 16" xmlns="http://www.w3.org/2000/svg"><path d="m13.2 1c.4418278 0 .8.3581722.8.8v11.4c0 .4418278-.3581722.8-.8.8h-10.4c-.4418278 0-.8-.3581722-.8-.8v-11.4c0-.4418278.3581722-.8.8-.8zm-.5 1h-9.4c-.14201608 0-.26098419.0986801-.29207679.23121275l-.00792321.06878725v10.4c0 .1420161.0986801.2609842.23121275.2920768l.06878725.0079232h9.4c.1420161 0 .2609842-.0986801.2920768-.2312128l.0079232-.0687872v-10.4c0-.16568542-.1343146-.3-.3-.3zm-3.7 6c.27614237 0 .5.22385763.5.5s-.22385763.5-.5.5h-3.5c-.27614237 0-.5-.22385763-.5-.5s.22385763-.5.5-.5zm1.5-3c.2761424 0 .5.22385763.5.5s-.2238576.5-.5.5h-5c-.27614237 0-.5-.22385763-.5-.5s.22385763-.5.5-.5z" fill="#36425a" fill-rule="evenodd"/></svg>